<svg xmlns="http://www.w3.org/2000/svg" xmlns:xlink="http://www.w3.org/1999/xlink" width="400" height="400" viewBox="0 0 400 400">
<rect data-name="background" width="100%" height="100%" fill="#E4F1FF"></rect><g data-name="container" data="container_num:6" fill="#333333" transform="translate(46.400000000000006, 46.400000000000006) scale(6.144)"><path xmlns="http://www.w3.org/2000/svg" d="M24.95 0a25 25 0 1 0 25 25 25 25 0 0 0-25-25zm0 46.91a22 22 0 1 1 22-22 22 22 0 0 1-22 21.99z"></path><path xmlns="http://www.w3.org/2000/svg" d="M24.95 3.65a21.3 21.3 0 1 0 21.3 21.3 21.33 21.33 0 0 0-21.3-21.3z"></path></g><g data-name="icon" fill="#AEFFDE" data="id:7401536" transform="translate(164.5214479592923, 121.76708146516698) scale(0.7095952404199031)">
  
 <path d="m49.5 72.242c-11.906 0.046874-21.742-9.6211-21.742-21.59 0-11.965 9.6836-21.59 21.59-21.59 1.2812 0 2.3125 1.0312 2.3125 2.3125s-1.0312 2.3125-2.3125 2.3125c-9.3594 0-16.961 7.6016-16.961 16.961 0 9.3594 7.6797 16.961 17.086 16.961 3.4844 0 6.8164-1.0625 9.6367-3.0859 4.4883-3.1914 7.1719-8.3867 7.2031-13.879 0-1.2812 1.0312-2.2969 2.3125-2.2969s2.3125 1.0469 2.2969 2.3281c-0.03125 6.9844-3.4531 13.57-9.1289 17.625-3.6094 2.5898-7.8633 3.9492-12.305 3.9492z"></path>
 <path d="m49.344 84.578c-18.703 0-33.926-15.219-33.926-33.926 0-18.703 15.219-33.926 33.926-33.926 1.2812 0 2.3125 1.0312 2.3125 2.3125s-1.0312 2.3125-2.3125 2.3125c-16.16 0-29.297 13.137-29.297 29.297 0 16.16 13.137 29.297 29.297 29.297s29.297-13.137 29.297-29.297c0-1.2812 1.0312-2.3125 2.3125-2.3125s2.3125 1.0312 2.3125 2.3125c0 18.703-15.219 33.926-33.926 33.926z"></path>
 <path d="m49.344 100c-27.215 0-49.344-22.129-49.344-49.344 0-27.219 22.129-49.344 49.344-49.344 1.2812 0 2.3125 1.0312 2.3125 2.3125s-1.0312 2.3125-2.3125 2.3125c-24.656 0-44.719 20.062-44.719 44.719s20.062 44.719 44.719 44.719 44.719-20.062 44.719-44.719c0-1.2812 1.0312-2.3125 2.3125-2.3125s2.3125 1.0312 2.3125 2.3125c0 27.203-22.145 49.344-49.344 49.344z"></path>
 <path d="m99.832 15.375c-0.35547-0.86328-1.2031-1.4336-2.1445-1.4336h-11.625l-0.003906-11.629c0-0.94141-0.55469-1.7734-1.418-2.1445-0.86328-0.35547-1.8672-0.15234-2.5273 0.50781l-14.711 14.711c-0.58594 0.58594-0.80078 1.4336-0.58594 2.2344l2.6211 9.668-21.727 21.727c-0.91016 0.91016-0.91016 2.375 0 3.2695 0.44531 0.46094 1.0469 0.67969 1.6328 0.67969s1.1875-0.21484 1.6328-0.67969l21.695-21.695 9.0352 2.8359c0.23047 0.078125 0.46094 0.10938 0.69531 0.10938 0.60156 0 1.1875-0.23047 1.6172-0.64844l15.281-14.988c0.67969-0.66406 0.87891-1.6484 0.52344-2.5273zm-18.059 13.23-7.3398-2.3125-0.52344-0.16797-0.14062-0.49219-2.1445-7.9258 9.8086-9.8086v8.3594c0 1.2812 1.0469 2.3125 2.3125 2.3125h8.2812l-10.254 10.039z"></path>
 <path d="m74.434 26.293-0.52344-0.16797-0.14062-0.49219c0.125 0.0625 0.23047 0.15234 0.33984 0.26172 0.125 0.125 0.23047 0.26172 0.32422 0.40234z"></path>

  </g><g data-name="business_name" fill="#E4F1FF" data="id:300" transform="translate(138.4449311205832, 189.73135781714194) scale(1.1720310468083661)"><path d="M2.92,55.66l0-27.12l2.12,0q0.76,0,0.96,0.74l0.3,2.4q1.3-1.58,2.97-2.54t3.85-0.96q1.74,0,3.16,0.67t2.42,1.98t1.54,3.25t0.54,4.46q0,2.24-0.6,4.17t-1.72,3.34t-2.75,2.22t-3.67,0.81q-1.88,0-3.21-0.62t-2.35-1.76l0,8.96l-3.56,0z M11.94,31.06q-1.74,0-3.05,0.8t-2.41,2.26l0,9.8q0.98,1.32,2.15,1.86t2.61,0.54q2.82,0,4.34-2.02t1.52-5.76q0-1.98-0.35-3.4t-1.01-2.33t-1.62-1.33t-2.18-0.42z M25,48.8l0-20.26l2.04,0q0.58,0,0.8,0.22t0.3,0.76l0.24,3.16q1.04-2.12,2.57-3.31t3.59-1.19q0.84,0,1.52,0.19t1.26,0.53l-0.46,2.66q-0.14,0.5-0.62,0.5q-0.28,0-0.86-0.19t-1.62-0.19q-1.86,0-3.11,1.08t-2.09,3.14l0,12.9l-3.56,0z M45.08,28.54l0,20.26l-3.56,0l0-20.26l3.56,0z M45.88,22.18q0,0.52-0.21,0.97t-0.56,0.8t-0.81,0.55t-0.98,0.2t-0.97-0.2t-0.8-0.55t-0.55-0.8t-0.2-0.97t0.2-0.99t0.55-0.82t0.8-0.55t0.97-0.2t0.98,0.2t0.81,0.55t0.56,0.82t0.21,0.99z M59.56,28.22q2.22,0,4.01,0.74t3.04,2.1t1.92,3.29t0.67,4.31q0,2.4-0.67,4.32t-1.92,3.28t-3.04,2.09t-4.01,0.73t-4.01-0.73t-3.05-2.09t-1.94-3.28t-0.68-4.32q0-2.38,0.68-4.31t1.94-3.29t3.05-2.1t4.01-0.74z M59.56,46.3q3,0,4.48-2.01t1.48-5.61q0-3.62-1.48-5.64t-4.48-2.02q-1.52,0-2.64,0.52t-1.87,1.5t-1.12,2.41t-0.37,3.23t0.37,3.22t1.12,2.39t1.87,1.49t2.64,0.52z M100.78,34.48q0,2.02-0.41,3.84t-1.19,3.39t-1.9,2.85t-2.52,2.22l7.36,7.94l-3.2,0q-0.72,0-1.28-0.2t-1.02-0.7l-5.04-5.48q-1.14,0.36-2.37,0.56t-2.57,0.2q-3.16,0-5.76-1.07t-4.46-3.01t-2.88-4.63t-1.02-5.91t1.02-5.91t2.88-4.64t4.46-3.03t5.76-1.08t5.77,1.08t4.47,3.03t2.88,4.64t1.02,5.91z M96.8,34.48q0-2.64-0.72-4.74t-2.04-3.55t-3.2-2.23t-4.2-0.78q-2.3,0-4.18,0.78t-3.21,2.23t-2.05,3.55t-0.72,4.74t0.72,4.73t2.05,3.54t3.21,2.22t4.18,0.77q2.32,0,4.2-0.77t3.2-2.22t2.04-3.54t0.72-4.73z"></path></g><g data-name="slogan" fill="#AEFFDE" data="id:307" transform="translate(140.4090218533044, 258.4045278789282) scale(0.3733094434247907)"><path d="M11.3671875,19.4140625q5.52734375,0,8.076171875,2.158203125t2.548828125,6.181640625q0,1.81640625-0.595703125,3.447265625t-1.923828125,2.87109375t-3.486328125,1.953125t-5.283203125,0.712890625l-3.4765625,0l0,11.23046875l-3.3203125,0l0-28.5546875l7.4609375,0z M11.0546875,22.24609375l-3.828125,0l0,11.640625l3.10546875,0q2.734375,0,4.560546875-0.5859375t2.744140625-1.904296875t0.91796875-3.505859375q0-2.8515625-1.81640625-4.248046875t-5.68359375-1.396484375z M37.20703125,26.171875q0.64453125,0,1.34765625,0.068359375t1.25,0.185546875l-0.41015625,3.0078125q-0.52734375-0.13671875-1.171875-0.21484375t-1.2109375-0.078125q-1.2890625,0-2.431640625,0.517578125t-2.001953125,1.484375t-1.34765625,2.32421875t-0.48828125,3.017578125l0,11.484375l-3.26171875,0l0-21.40625l2.6953125,0l0.3515625,3.9453125l0.13671875,0q0.6640625-1.19140625,1.6015625-2.177734375t2.177734375-1.572265625t2.763671875-0.5859375z M47.0703125,26.5625l0,21.40625l-3.2421875,0l0-21.40625l3.2421875,0z M45.48828125,18.5546875q0.80078125,0,1.376953125,0.517578125t0.576171875,1.611328125q0,1.07421875-0.576171875,1.6015625t-1.376953125,0.52734375q-0.83984375,0-1.396484375-0.52734375t-0.556640625-1.6015625q0-1.09375,0.556640625-1.611328125t1.396484375-0.517578125z M72.3828125,37.2265625q0,2.63671875-0.68359375,4.70703125t-1.97265625,3.49609375t-3.115234375,2.177734375t-4.130859375,0.751953125q-2.1484375,0-3.935546875-0.751953125t-3.0859375-2.177734375t-2.01171875-3.49609375t-0.712890625-4.70703125q0-3.515625,1.19140625-5.986328125t3.408203125-3.76953125t5.283203125-1.298828125q2.9296875,0,5.126953125,1.30859375t3.41796875,3.779296875t1.220703125,5.966796875z M56.09375,37.2265625q0,2.578125,0.68359375,4.47265625t2.109375,2.9296875t3.671875,1.03515625q2.2265625,0,3.662109375-1.03515625t2.119140625-2.9296875t0.68359375-4.47265625q0-2.55859375-0.68359375-4.423828125t-2.109375-2.880859375t-3.69140625-1.015625q-3.33984375,0-4.892578125,2.20703125t-1.552734375,6.11328125z M87.71484375,26.171875q0.64453125,0,1.34765625,0.068359375t1.25,0.185546875l-0.41015625,3.0078125q-0.52734375-0.13671875-1.171875-0.21484375t-1.2109375-0.078125q-1.2890625,0-2.431640625,0.517578125t-2.001953125,1.484375t-1.34765625,2.32421875t-0.48828125,3.017578125l0,11.484375l-3.26171875,0l0-21.40625l2.6953125,0l0.3515625,3.9453125l0.13671875,0q0.6640625-1.19140625,1.6015625-2.177734375t2.177734375-1.572265625t2.763671875-0.5859375z M97.578125,26.5625l0,21.40625l-3.2421875,0l0-21.40625l3.2421875,0z M95.99609375,18.5546875q0.80078125,0,1.376953125,0.517578125t0.576171875,1.611328125q0,1.07421875-0.576171875,1.6015625t-1.376953125,0.52734375q-0.83984375,0-1.396484375-0.52734375t-0.556640625-1.6015625q0-1.09375,0.556640625-1.611328125t1.396484375-0.517578125z M111.34765625,45.703125q0.80078125,0,1.640625-0.13671875t1.3671875-0.33203125l0,2.51953125q-0.56640625,0.25390625-1.572265625,0.4296875t-1.962890625,0.17578125q-1.69921875,0-3.0859375-0.595703125t-2.216796875-2.021484375t-0.830078125-3.9453125l0-12.6953125l-3.046875,0l0-1.58203125l3.06640625-1.26953125l1.2890625-4.6484375l1.953125,0l0,4.9609375l6.26953125,0l0,2.5390625l-6.26953125,0l0,12.59765625q0,2.01171875,0.927734375,3.0078125t2.470703125,0.99609375z M121.93359375,26.5625l0,21.40625l-3.2421875,0l0-21.40625l3.2421875,0z M120.3515625,18.5546875q0.80078125,0,1.376953125,0.517578125t0.576171875,1.611328125q0,1.07421875-0.576171875,1.6015625t-1.376953125,0.52734375q-0.83984375,0-1.396484375-0.52734375t-0.556640625-1.6015625q0-1.09375,0.556640625-1.611328125t1.396484375-0.517578125z M137.03125,26.171875q2.734375,0,4.6875,1.2109375t2.98828125,3.388671875t1.03515625,5.087890625l0,2.01171875l-14.78515625,0q0.05859375,3.76953125,1.875,5.7421875t5.1171875,1.97265625q2.03125,0,3.59375-0.37109375t3.2421875-1.09375l0,2.8515625q-1.62109375,0.72265625-3.212890625,1.0546875t-3.759765625,0.33203125q-3.0859375,0-5.380859375-1.259765625t-3.564453125-3.701171875t-1.26953125-5.9765625q0-3.45703125,1.162109375-5.986328125t3.28125-3.896484375t4.990234375-1.3671875z M136.9921875,28.828125q-2.59765625,0-4.140625,1.69921875t-1.8359375,4.74609375l11.328125,0q-0.01953125-1.9140625-0.595703125-3.369140625t-1.748046875-2.265625t-3.0078125-0.810546875z M165.09765625,42.109375q0,2.05078125-1.025390625,3.447265625t-2.9296875,2.099609375t-4.541015625,0.703125q-2.24609375,0-3.88671875-0.3515625t-2.87109375-0.99609375l0-2.98828125q1.30859375,0.64453125,3.125,1.171875t3.7109375,0.52734375q2.7734375,0,4.0234375-0.8984375t1.25-2.44140625q0-0.87890625-0.498046875-1.552734375t-1.669921875-1.30859375t-3.2421875-1.396484375q-2.05078125-0.78125-3.544921875-1.552734375t-2.3046875-1.884765625t-0.810546875-2.890625q0-2.71484375,2.197265625-4.169921875t5.771484375-1.455078125q1.93359375,0,3.623046875,0.380859375t3.154296875,1.025390625l-1.09375,2.59765625q-1.328125-0.56640625-2.83203125-0.95703125t-3.06640625-0.390625q-2.24609375,0-3.447265625,0.7421875t-1.201171875,2.03125q0,0.99609375,0.556640625,1.640625t1.787109375,1.2109375t3.2421875,1.328125q2.01171875,0.7421875,3.4765625,1.533203125t2.255859375,1.9140625t0.791015625,2.880859375z M174.0234375,43.3203125l0.25390625,0.44921875q-0.3515625,1.42578125-0.888671875,3.046875t-1.171875,3.251953125t-1.279296875,3.056640625l-2.421875,0q0.41015625-1.5625,0.80078125-3.291015625t0.712890625-3.41796875t0.517578125-3.095703125l3.4765625,0z  M204.90234375,42.109375q0,2.05078125-1.025390625,3.447265625t-2.9296875,2.099609375t-4.541015625,0.703125q-2.24609375,0-3.88671875-0.3515625t-2.87109375-0.99609375l0-2.98828125q1.30859375,0.64453125,3.125,1.171875t3.7109375,0.52734375q2.7734375,0,4.0234375-0.8984375t1.25-2.44140625q0-0.87890625-0.498046875-1.552734375t-1.669921875-1.30859375t-3.2421875-1.396484375q-2.05078125-0.78125-3.544921875-1.552734375t-2.3046875-1.884765625t-0.810546875-2.890625q0-2.71484375,2.197265625-4.169921875t5.771484375-1.455078125q1.93359375,0,3.623046875,0.380859375t3.154296875,1.025390625l-1.09375,2.59765625q-1.328125-0.56640625-2.83203125-0.95703125t-3.06640625-0.390625q-2.24609375,0-3.447265625,0.7421875t-1.201171875,2.03125q0,0.99609375,0.556640625,1.640625t1.787109375,1.2109375t3.2421875,1.328125q2.01171875,0.7421875,3.4765625,1.533203125t2.255859375,1.9140625t0.791015625,2.880859375z M228.57421875,37.2265625q0,2.63671875-0.68359375,4.70703125t-1.97265625,3.49609375t-3.115234375,2.177734375t-4.130859375,0.751953125q-2.1484375,0-3.935546875-0.751953125t-3.0859375-2.177734375t-2.01171875-3.49609375t-0.712890625-4.70703125q0-3.515625,1.19140625-5.986328125t3.408203125-3.76953125t5.283203125-1.298828125q2.9296875,0,5.126953125,1.30859375t3.41796875,3.779296875t1.220703125,5.966796875z M212.28515625,37.2265625q0,2.578125,0.68359375,4.47265625t2.109375,2.9296875t3.671875,1.03515625q2.2265625,0,3.662109375-1.03515625t2.119140625-2.9296875t0.68359375-4.47265625q0-2.55859375-0.68359375-4.423828125t-2.109375-2.880859375t-3.69140625-1.015625q-3.33984375,0-4.892578125,2.20703125t-1.552734375,6.11328125z M237.44140625,47.96875l-3.26171875,0l0-30.390625l3.26171875,0l0,30.390625z M248.984375,47.96875l-8.125-21.40625l3.4765625,0l4.70703125,12.94921875q0.48828125,1.328125,0.99609375,2.9296875t0.703125,2.578125l0.13671875,0q0.234375-0.9765625,0.78125-2.587890625t0.99609375-2.919921875l4.70703125-12.94921875l3.4765625,0l-8.14453125,21.40625l-3.7109375,0z M272.5,26.171875q2.734375,0,4.6875,1.2109375t2.98828125,3.388671875t1.03515625,5.087890625l0,2.01171875l-14.78515625,0q0.05859375,3.76953125,1.875,5.7421875t5.1171875,1.97265625q2.03125,0,3.59375-0.37109375t3.2421875-1.09375l0,2.8515625q-1.62109375,0.72265625-3.212890625,1.0546875t-3.759765625,0.33203125q-3.0859375,0-5.380859375-1.259765625t-3.564453125-3.701171875t-1.26953125-5.9765625q0-3.45703125,1.162109375-5.986328125t3.28125-3.896484375t4.990234375-1.3671875z M272.4609375,28.828125q-2.59765625,0-4.140625,1.69921875t-1.8359375,4.74609375l11.328125,0q-0.01953125-1.9140625-0.595703125-3.369140625t-1.748046875-2.265625t-3.0078125-0.810546875z M294.3359375,48.359375q-4.0625,0-6.435546875-2.7734375t-2.373046875-8.2421875q0-5.52734375,2.421875-8.349609375t6.4453125-2.822265625q1.69921875,0,2.96875,0.44921875t2.1875,1.201171875t1.54296875,1.708984375l0.234375,0q-0.078125-0.60546875-0.15625-1.66015625t-0.078125-1.71875l0-8.57421875l3.2421875,0l0,30.390625l-2.6171875,0l-0.48828125-3.046875l-0.13671875,0q-0.60546875,0.95703125-1.533203125,1.73828125t-2.20703125,1.240234375t-3.017578125,0.458984375z M294.84375,45.6640625q3.4375,0,4.86328125-1.953125t1.42578125-5.80078125l0-0.5859375q0-4.08203125-1.357421875-6.26953125t-4.931640625-2.1875q-2.98828125,0-4.47265625,2.294921875t-1.484375,6.259765625q0,3.9453125,1.474609375,6.09375t4.482421875,2.1484375z M310.703125,45.9375q0-1.3671875,0.6640625-1.943359375t1.62109375-0.576171875q0.99609375,0,1.6796875,0.576171875t0.68359375,1.943359375q0,1.34765625-0.68359375,1.962890625t-1.6796875,0.615234375q-0.95703125,0-1.62109375-0.615234375t-0.6640625-1.962890625z"></path></g></svg>