<svg xmlns="http://www.w3.org/2000/svg" xmlns:xlink="http://www.w3.org/1999/xlink" width="400" height="400" viewBox="0 0 400 400"><g data-name="icon" fill="#AEFFDE" data="id:7401536" transform="translate(40.01374440517799, 40.01656532303968) scale(3.199834237102738)">
  
 <path d="m49.5 72.242c-11.906 0.046874-21.742-9.6211-21.742-21.59 0-11.965 9.6836-21.59 21.59-21.59 1.2812 0 2.3125 1.0312 2.3125 2.3125s-1.0312 2.3125-2.3125 2.3125c-9.3594 0-16.961 7.6016-16.961 16.961 0 9.3594 7.6797 16.961 17.086 16.961 3.4844 0 6.8164-1.0625 9.6367-3.0859 4.4883-3.1914 7.1719-8.3867 7.2031-13.879 0-1.2812 1.0312-2.2969 2.3125-2.2969s2.3125 1.0469 2.2969 2.3281c-0.03125 6.9844-3.4531 13.57-9.1289 17.625-3.6094 2.5898-7.8633 3.9492-12.305 3.9492z"/>
 <path d="m49.344 84.578c-18.703 0-33.926-15.219-33.926-33.926 0-18.703 15.219-33.926 33.926-33.926 1.2812 0 2.3125 1.0312 2.3125 2.3125s-1.0312 2.3125-2.3125 2.3125c-16.16 0-29.297 13.137-29.297 29.297 0 16.16 13.137 29.297 29.297 29.297s29.297-13.137 29.297-29.297c0-1.2812 1.0312-2.3125 2.3125-2.3125s2.3125 1.0312 2.3125 2.3125c0 18.703-15.219 33.926-33.926 33.926z"/>
 <path d="m49.344 100c-27.215 0-49.344-22.129-49.344-49.344 0-27.219 22.129-49.344 49.344-49.344 1.2812 0 2.3125 1.0312 2.3125 2.3125s-1.0312 2.3125-2.3125 2.3125c-24.656 0-44.719 20.062-44.719 44.719s20.062 44.719 44.719 44.719 44.719-20.062 44.719-44.719c0-1.2812 1.0312-2.3125 2.3125-2.3125s2.3125 1.0312 2.3125 2.3125c0 27.203-22.145 49.344-49.344 49.344z"/>
 <path d="m99.832 15.375c-0.35547-0.86328-1.2031-1.4336-2.1445-1.4336h-11.625l-0.003906-11.629c0-0.94141-0.55469-1.7734-1.418-2.1445-0.86328-0.35547-1.8672-0.15234-2.5273 0.50781l-14.711 14.711c-0.58594 0.58594-0.80078 1.4336-0.58594 2.2344l2.6211 9.668-21.727 21.727c-0.91016 0.91016-0.91016 2.375 0 3.2695 0.44531 0.46094 1.0469 0.67969 1.6328 0.67969s1.1875-0.21484 1.6328-0.67969l21.695-21.695 9.0352 2.8359c0.23047 0.078125 0.46094 0.10938 0.69531 0.10938 0.60156 0 1.1875-0.23047 1.6172-0.64844l15.281-14.988c0.67969-0.66406 0.87891-1.6484 0.52344-2.5273zm-18.059 13.23-7.3398-2.3125-0.52344-0.16797-0.14062-0.49219-2.1445-7.9258 9.8086-9.8086v8.3594c0 1.2812 1.0469 2.3125 2.3125 2.3125h8.2812l-10.254 10.039z"/>
 <path d="m74.434 26.293-0.52344-0.16797-0.14062-0.49219c0.125 0.0625 0.23047 0.15234 0.33984 0.26172 0.125 0.125 0.23047 0.26172 0.32422 0.40234z"/>

  </g></svg>